<svg xmlns="http://www.w3.org/2000/svg" viewBox="0 0 120.01 107.8"><defs><style>.cls-1{fill:#4e4e4a;}.cls-2{fill:#00cfc3;}</style></defs><title>logoPetCare</title><g id="Capa_2" data-name="Capa 2"><g id="Capa_1-2" data-name="Capa 1"><path class="cls-1" d="M101.07,34.32c-.95-.81-1.89-1.63-2.83-2.46q-8.91-7.8-17.83-15.62Q72,8.89,63.63,1.55c-2.31-2-4.77-2.09-7,0C52,5.69,47.48,9.89,42.93,14.07l-15,13.77q-4.71,4.31-9.42,8.63a4,4,0,0,0-1.37,3.19c0,1.56,1,2.53,2,3.56a4.28,4.28,0,0,0,6.3.19c.56-.57,1.19-1.08,1.9-1.68a.37.37,0,0,1,.62.28v.92q0,3.33,0,6.66c0,9.66,0,19.32,0,29a4.16,4.16,0,0,0,4.44,4.5H46.47a.38.38,0,0,0,.31-.59,6.31,6.31,0,0,1-.63-1.21,8.63,8.63,0,0,1,0-6.17,18.59,18.59,0,0,1,5-7.78c2.68-2.44,6-3.41,11-3.38a13,13,0,0,1,10.07,5.49c1.71,2.36,3.2,4.87,3.41,7.92a8.33,8.33,0,0,1-.92,4.74c-.08.15-.17.29-.26.43a.37.37,0,0,0,.32.58H75c5-.12,10,0,15.07,0A4.16,4.16,0,0,0,94.35,79c0-1.1,0-2.22,0-3.32V42.54a.38.38,0,0,1,.62-.29c.31.26.57.48.81.72a2.17,2.17,0,0,0,2.49.47,8.07,8.07,0,0,0,3.27-2.59A4.6,4.6,0,0,0,101.07,34.32Zm-54,35.53c-2,3-5.35,3.11-7.63.37s-2.09-7.78.17-10.33a4.49,4.49,0,0,1,7.47.54,8.09,8.09,0,0,1,1.33,4.71A7.89,7.89,0,0,1,47.05,69.85ZM58.23,60.3c-2.69,3.46-7.22,3.21-9.6-.51a11.29,11.29,0,0,1-1.75-6.13,10.9,10.9,0,0,1,2-6.39c2.52-3.4,6.76-3.42,9.34-.07A11.4,11.4,0,0,1,58.23,60.3Zm4-1.92a11.92,11.92,0,0,1-1-4.84,10.22,10.22,0,0,1,2.43-6.75,5.5,5.5,0,0,1,9,.51,11.3,11.3,0,0,1,.94,11.28C70.41,65.18,65.17,65.07,62.19,58.38ZM81.78,71.13A4.51,4.51,0,0,1,75,69.8a9.1,9.1,0,0,1-1.31-4.88v0a7.28,7.28,0,0,1,2.7-5.83,4.2,4.2,0,0,1,5.26,0C85.09,61.64,85.17,68.5,81.78,71.13Z"/><path class="cls-2" d="M0,90.57H8.7A6,6,0,0,1,13,91.92a5,5,0,0,1,1.42,3.85,5.25,5.25,0,0,1-1.54,4,6.7,6.7,0,0,1-4.71,1.44H5.26v6.29H0Zm5.26,7.22H6.54a3.32,3.32,0,0,0,2.13-.52,1.7,1.7,0,0,0,.61-1.35,1.9,1.9,0,0,0-.53-1.35,2.75,2.75,0,0,0-2-.56H5.26Z"/><path class="cls-2" d="M17.11,90.57h14v3.61H22.35v2.7H30.5v3.45H22.35v3.34h9v3.84H17.11Z"/><path class="cls-2" d="M33,90.57H48.94v4.18H43.6v12.76H38.36V94.75H33Z"/><path class="cls-1" d="M61.78,100.58,66.37,102a8.36,8.36,0,0,1-1.46,3.23,6.28,6.28,0,0,1-2.47,2,9.2,9.2,0,0,1-3.75.66,11,11,0,0,1-4.51-.8,7.18,7.18,0,0,1-3-2.83A9.52,9.52,0,0,1,49.89,99a8.79,8.79,0,0,1,2.23-6.46,8.49,8.49,0,0,1,6.33-2.26,8.64,8.64,0,0,1,5,1.29,7.68,7.68,0,0,1,2.72,4l-4.63,1a4.17,4.17,0,0,0-.5-1.14A3.16,3.16,0,0,0,60,94.52a3,3,0,0,0-1.42-.32,3.06,3.06,0,0,0-2.73,1.43A6.05,6.05,0,0,0,55.13,99c0,1.88.29,3.17.86,3.87a2.94,2.94,0,0,0,2.4,1,2.91,2.91,0,0,0,2.27-.84A5.17,5.17,0,0,0,61.78,100.58Z"/><path class="cls-1" d="M79.33,104.71H73.39l-.83,2.8H67.21l6.37-16.94h5.71l6.37,16.94H80.18Zm-1.09-3.66L76.37,95l-1.85,6.09Z"/><path class="cls-1" d="M87.39,107.51V90.57h8.73a12.94,12.94,0,0,1,3.71.41,3.9,3.9,0,0,1,2.07,1.55,4.69,4.69,0,0,1,.79,2.74,4.57,4.57,0,0,1-2.26,4.09,6.15,6.15,0,0,1-1.84.67,5.24,5.24,0,0,1,1.37.63,5,5,0,0,1,.83.89,7.09,7.09,0,0,1,.74,1l2.53,4.91H98.15l-2.8-5.18a4,4,0,0,0-.95-1.3,2.23,2.23,0,0,0-1.28-.4h-.47v6.88Zm5.26-10.08h2.21a7.37,7.37,0,0,0,1.39-.23,1.38,1.38,0,0,0,.85-.53,1.71,1.71,0,0,0-.19-2.24A3.12,3.12,0,0,0,95,94h-2.3Z"/><path class="cls-1" d="M105.73,90.57h14v3.61H111v2.7h8.15v3.45H111v3.34h9v3.84H105.73Z"/></g></g></svg>